<svg width="16" height="11" viewBox="0 0 16 11" fill="none" xmlns="http://www.w3.org/2000/svg"><path opacity=".3" d="M.34 5.5c0-1.52.34-2.69 1-3.5A3.61 3.61 0 0 1 4.29.79c.67 0 1.26.12 1.75.35.5.21.92.53 1.24.95.32.4.56.9.72 1.5.16.57.23 1.21.23 1.92 0 1.52-.34 2.7-1.02 3.51-.67.8-1.65 1.2-2.92 1.2-.67 0-1.26-.1-1.76-.32-.5-.23-.9-.54-1.23-.95a4.22 4.22 0 0 1-.72-1.5A7.57 7.57 0 0 1 .34 5.5Zm1.5 0c0 .46.04.9.12 1.31.1.42.24.79.43 1.1a2.12 2.12 0 0 0 1.89 1.04c1.63.02 2.45-1.13 2.45-3.45 0-.47-.05-.91-.14-1.33a3.32 3.32 0 0 0-.42-1.1 2.12 2.12 0 0 0-1.89-1.03c-1.63 0-2.45 1.14-2.45 3.46Zm14.12-3.24h-2.83V10h-1.44V2.26H8.86V1h7.1v1.26Z" fill="#fff"/></svg>